<svg xmlns="http://www.w3.org/2000/svg" width="100" height="100"><g><path d="M86.28 5.28c-2.748.217-3.495 3.986-7.03 6.157-7.26-5.207-10.39-2.1-17.5-.937-4.99 1.75-7.622-.733-16.5-2.47 1.202 4.43 2.752 4.455 2.97 4.876 5.265.712 6.83-.493 10.218 2.875-4.4-3.715-7.653-1.044-14.407-3.874-1.335-.635-1.17-.793-3.968-2.344-1.014 5.093 1.43 9.368 4.72 12.25 2.092 1.835 3.824 2.732 8.124 1.97 1.863-.33-3.144 3.144-3.527 5.597 1.704 2.03 2.777 3.646 6.303 5.62-7.736-2.732-7.133-10.494-16.027-9.063-14.31 2.304-14.866 1.925-34.343-2.03C9.957 36.84 21.012 31.253 40.03 34c-13.608-1.27-21.365.46-28.718-2 5.63 11.068 19.626 6.204 31.313 5.438-13 1.927-19.1 2.873-24.72 1.03 6.586 10.628 18.954 4.66 26.19 2.376-5.103 2.31-9.357 4.507-16.876 3.937 6.922 7.827 15.693 1.27 18.874-1.28-4.003 4.202-8.266 6.17-15.22 5.22-6.36 4.268-7.218 16.343-7.218 16.343s1.367-.03 1.532.03c-.092.04-.392.097-1.094.188-2.897.38-5.013.915-6.22 4.376-2.503 7.185 5.84 6.524 3.564 1.094 2.565-1.09 4.017-.628 5.156.688 1.7 1.965.854 5.358-.094 7.78-1.098 2.806-3.826 4.708-6.063 6.72-1.53 1.376-5.374 1.104-4.968 3.624.4 2.483-5.157 5.284-2.845 5.5 2.312.217 4.825-2.438 10.344-3.468 2.96-.553 15.91-2.192 18.976-2.99 6.7-1.747 9.594-5.448 10.813-7.117 1.218-1.67 2.407-10.17-.706-13.496 3.174 1.703 2.5 9.553 1.83 12.286 12.45.5 27.94-21.485 24.586-33.47 2.145-3.017 5.363-2.68 15.124-10.744-4.18-1.257-1.854-1.012-3.302-.77 1.628-1.154 2.157-3.34 2.754-6.338-4.197 1.36-5.192 4.83-9.11 5.92-3.915 1.093-3.64 2.625-15.092 1.563 7.737-.007 9.89.484 15.312-2.437 3.714-2.12 5.462-7.854 6.875-17.78-2.806 3.045-4.654 3.917-6.25 3.75 3.04-.302 5.79-3.516 8.5-7.095 1.436-4.71-3.142-7.287-6.436-7.594-.203-.018-.38-.013-.563 0zm-67.81 6.25c.434 3.784.043 5.78 3.78 9.97 5.716 4.708 11.938 4.906 11.938 4.906s4.965-1.038 7.5-1.093c1.688-.037 2.26.07 3.276.5 1.606.68 2.943 2.46 4.165 3.165.35-1.59 3.37-4.697 3.37-4.697s-2.53.263-3.78.064c-1.173-.187-2.267-.727-3.376-1.157-9.105-3.527-13.69-.614-26.875-11.656zm53.843 4.595c.504-.022 1.115.125 1.812.53.938.548.37 2.57-.344 2.157-1.438-.833-2.325.247-3.5-.375-.046.088-.26.2-.843.282-.943.13-.568-.25.47-.876.21-.127.892-1.653 2.406-1.72zm-50.72 5.438l2.282 5.218s2.553.452 8.844-.093c-2.635-.826-4.85-1.238-7.032-2.406-1.342-.438-4.094-2.718-4.094-2.718zm2.938 48.968c-.935-.094-1.595 1.172-2.186 1.907-.513.638-.214 1.946-1.625 2.594-1.798.746-2.204-.36-2.907-.186-2.63 1.548-4.86 5.834-6.992 5.236-1.746.307 1.815.96-1.842 4.112 1.036.9 3.806-1.884 6.32-2.317 3.058-.526 5.906 2.215 8.515.53 2.523-3.02 3.662-6.13 3.312-8.624-.223-1.588-1.003-3.087-2.594-3.25z" opacity=".97"/><path d="M17.334 73.06c-1.508-.695-1.037-3.008-2.813-3.31-.532.672-.22.83.374 1.08 1.294.623.537 2-.665 2.04-1.203.036-1.99-1.028-2.084-2.216-.023-1.468 1.07-2.953 2.484-3.323 1.51-.394 2.656.9 3.18 1.963-.735 1.64-.75 2.528-.476 3.766z" opacity=".97"/><path d="M10.868 68.798c.565-.092 1.315.44 1.315.44s-.544.81-.073 2.2c-1.095-.35-.613-1.377-1.28-1.65-.41-.17-.804.026-1.095.807-.587-.692.24-1.65 1.133-1.797z" opacity=".97"/></g></svg>