<svg xmlns="http://www.w3.org/2000/svg" width="100" height="100" viewBox="0 0 100 100"><path fill-rule="evenodd" clip-rule="evenodd" d="M97.61 67.892c-.62-.21-1.184-.337-1.69-.584-.673-.33-1.094-.912-1.005-1.687.073-.633.404-1.166 1.052-1.415.75-.29 1.37-.034 1.912.483.84.8 1.203 2.343.78 3.405-.495 1.248-1.464 1.81-2.776 1.886-.98.056-1.923-.126-2.715-.657-.824-.553-1.184-.272-1.59.48-.442.82-1.018 1.57-1.65 2.528-.048-.77.336-1.128.556-1.538 2.31-4.31 3.7-8.853 3.655-13.79-.06-7.032-2.825-12.945-7.512-18.015-6.142-6.646-13.932-10.333-22.64-12.254-7.03-1.55-14.108-1.533-21.23-.604-5.052.66-10.134 1.09-15.214 1.53 6.91-1.334 13.774-2.973 20.765-3.728 12.212-1.316 23.713.886 33.92 8.06 6.426 4.517 11.025 10.436 12.847 18.246 1.3 5.57.646 10.958-1.698 16.132-.44.97-.18 1.402.605 1.848 1.454.824 2.56.764 3.624-.326zm-1.117-3.138c-.59-.017-1.066.453-1.092 1.073-.03.777.855 1.542 1.83 1.642.585.06.708-.268.72-.718.024-.934-.747-1.977-1.457-1.998zM13.616 34.29c-.813 1.924-1.64 3.823-2.03 5.893-.644 3.445-1.878 4.64-5.388 5.283-.617.113-.848.23-.735.91.2 1.21-.332 2.234-1.262 3.39 1.303 0 2.387.057 3.46-.017 1.098-.076 2.185-.28 3.487-.456-1.965.85-3.914.783-5.762 1.313 3.732 1.592 7.79.816 11.616 1.652 3.83.838 7.71 1.257 11.65 1.01-2.372.733-4.8.993-7.257.767-4.303-.397-8.607-.724-12.927-.892-4.06-.16-6.327-2.074-6.926-5.692-.333-2.01.57-3.192 2.58-3.333.902-.063 1.802-.07 2.7-.243 2.034-.394 3.29-1.5 3.733-3.575.483-2.26 1.57-4.242 3.063-6.01zM4.48 47.08c-.14-.4.068-1.234-.617-1.21-.855.032-.897.952-.99 1.62-.074.52-.035 1.298.595 1.287.904-.018.845-.945 1.01-1.698zM37.544 75.35c-1.248 2.082-3.913 1.977-5.75 1.246-.458-.18-.376-.447-.157-.748 2.586-3.54 2.354-7.763 2.84-11.804.178-1.466.222-2.956.204-4.434-.022-2.016-.184-3.99-1.407-5.764-.903-1.312-1.018-2.947-1.18-4.49-.186-1.755-.178-3.53 0-5.636.42 2.913.703 5.515 1.604 7.985.168.462.274 1.004.586 1.345 1.917 2.104 2.005 4.724 2.03 7.31.037 4.12-.54 8.193-1.49 12.196-.22.922-.845 1.772-1.39 2.586-.514.77-.194.97.525 1.07 1.3.176 2.528.06 3.586-.86zM50.933 76.847c-2.14-.468-3.18-1.59-3.042-3.086.06-.627.272-.948.962-.994 3.224-.22 6.137-1.68 9.222-2.37 2.812-.627 4.042-2.248 5.13-4.673 1.805-4.023 6.457-6.54 11.36-6.542-1.282.462-2.476.853-3.638 1.32-1.23.496-2.336 1.21-3.35 2.065-2.016 1.7-3.428 3.814-3.92 6.396-.215 1.127-.843 1.63-1.727 1.934-4.04 1.38-8.12 2.626-12.4 2.98-1.09.09-.864.635-.593 1.228.372.806 1.182 1.18 1.996 1.745zM23.845 33.335c.608-3.252-.65-5.313-2.997-6.903-.76-.514-1.264-.49-1.85.24-1.05 1.312-1.697 2.793-2.1 4.4-.095.38-.204.758-.365 1.357-.507-1.518-.48-2.822-.066-4.086.87-2.65 1.573-5.327 1.715-8.16 3.726 2.257 8.36 8.512 5.663 13.15zM55.528 76.01c2.374-1.35 4.977-1.548 7.604-1.12 1.467.24 2.525.26 3.482-1.196 1.593-2.422 3.997-2.19 6.51-.655 2.092 1.278 4.297 2.19 6.75 2.524 1.49.202 2.945.028 4.42-.037-2.56 1.117-5.188 1.174-7.857.492-1.482-.38-2.845-1.056-4.2-1.74-2.647-1.336-3.753-1.122-5.33 1.383-.637 1.01-1.155 1.113-2.23.804-2.987-.863-6.032-1.245-9.15-.457zM48.53 46.49c-.108 4.092-1.12 7.47-3.74 10.178-2.653 2.74-4.21 5.985-4.582 9.735-.165 1.662-.61 3.32-.35 5.02-1.497-4.73-.76-11.007 3.007-14.783 2.666-2.676 4.475-5.755 5.376-9.398.038-.153.112-.295.29-.752zM64.51 62.433c-1.72 2.267-1.14 2.112-3.635 1.326-4.676-1.474-8.453-4.32-11.664-7.98 4.514 3.57 9.476 6.082 15.3 6.653zM9.76 29.727c1.22.885 2.43 1.787 3.668 2.646.464.322.48.59.073.94-.09.08-.16.185-.237.28-1.355 1.675-1.377 1.686-2.38-.212-.38-.718-.658-1.493-.956-2.253-.16-.407-.26-.837-.388-1.256l.22-.143zM14.98 37.942c.975.167 1.9.225 2.81-.237-.936 1.483-2.038 1.59-2.81.237z"/></svg>