<svg xmlns:osb="http://www.openswatchbook.org/uri/2009/osb" xmlns:dc="http://purl.org/dc/elements/1.1/" xmlns:cc="http://creativecommons.org/ns#" xmlns:rdf="http://www.w3.org/1999/02/22-rdf-syntax-ns#" xmlns:svg="http://www.w3.org/2000/svg" xmlns="http://www.w3.org/2000/svg" xmlns:sodipodi="http://sodipodi.sourceforge.net/DTD/sodipodi-0.dtd" xmlns:inkscape="http://www.inkscape.org/namespaces/inkscape" width="100" height="100" id="svg2" version="1.1" inkscape:version="0.48.4 r9939" sodipodi:docname="When Pigs Fly.svg" inkscape:export-filename="C:\Users\mrelia\Desktop\Noun Project\When Pigs Fly.png" inkscape:export-xdpi="100" inkscape:export-ydpi="100">
  <defs id="defs4">
    </defs>
  <sodipodi:namedview id="base" pagecolor="#ffffff" bordercolor="#666666" borderopacity="1.0" inkscape:pageopacity="0.0" inkscape:pageshadow="2" inkscape:zoom="3.959798" inkscape:cx="53.262518" inkscape:cy="43.712439" inkscape:document-units="px" inkscape:current-layer="layer5" showgrid="false" showborder="true" inkscape:window-width="914" inkscape:window-height="684" inkscape:window-x="359" inkscape:window-y="146" inkscape:window-maximized="0" showguides="true" inkscape:guide-bbox="true" guidecolor="#c60032" guideopacity="0.49803922" objecttolerance="5" gridtolerance="1" guidetolerance="1">
    <inkscape:grid type="xygrid" id="grid2985" empspacing="10" visible="true" enabled="true" snapvisiblegridlinesonly="true" spacingx="5px" spacingy="5px" originx="0px" originy="0px" color="#14a8ff" opacity="0.1254902"/>
    <sodipodi:guide orientation="1,0" position="5,57.321429" id="guide2987"/>
    <sodipodi:guide orientation="1,0" position="95,120" id="guide2989"/>
    <sodipodi:guide orientation="0,1" position="120,95" id="guide2991"/>
    <sodipodi:guide orientation="0,1" position="125,5" id="guide2993"/>
  </sodipodi:namedview>
  <metadata id="metadata7">
    <rdf:RDF>
      <cc:Work rdf:about="">
        <dc:format>image/svg+xml</dc:format>
        <dc:type rdf:resource="http://purl.org/dc/dcmitype/StillImage"/>
        <dc:title/>
      </cc:Work>
    </rdf:RDF>
  </metadata>
  <g inkscape:groupmode="layer" id="layer5" inkscape:label="Layer#1" style="display:inline">
    <path style="opacity:0.97000001999999996;fill:#000000;fill-opacity:1;stroke:none;display:inline" d="M 86.28125,5.28125 C 83.531888,5.4967741 82.785181,9.2655452 79.25,11.4375 71.990974,6.2303456 68.859461,9.3368392 61.75,10.5 56.759577,12.249619 54.128296,9.7668252 45.25,8.03125 c 1.202317,4.429112 2.751617,4.453373 2.96875,4.875 5.266184,0.711399 6.829812,-0.492979 10.21875,2.875 -4.398802,-3.716542 -7.652091,-1.045031 -14.40625,-3.875 -1.335848,-0.635165 -1.170927,-0.793271 -3.96875,-2.34375 -1.014873,5.092439 1.430935,9.36713 4.71875,12.25 2.092381,1.834673 3.82425,2.731529 8.125,1.96875 1.862601,-0.33035 -3.144186,3.14519 -3.526786,5.598214 C 51.08443,31.408977 52.157015,33.025819 55.683036,35 47.946746,32.268318 48.550104,24.506183 39.65625,25.9375 25.345209,28.240622 24.789669,27.862358 5.3125,23.90625 9.9569692,36.839978 21.011755,31.254444 40.03125,34 26.421613,32.728985 18.6646,34.459977 11.3125,32 c 5.630865,11.067816 19.625171,6.20412 31.3125,5.4375 -12.99982,1.927264 -19.09985,2.873485 -24.71875,1.03125 6.584964,10.627393 18.952821,4.659286 26.1875,2.375 -5.10204,2.309422 -9.356224,4.50744 -16.875,3.9375 6.923036,7.825347 15.694256,1.269806 18.875,-1.28125 -4.002428,4.201831 -8.265527,6.169384 -15.21875,5.21875 -6.359571,4.268826 -7.21875,16.34375 -7.21875,16.34375 0,0 1.366858,-0.03024 1.53125,0.03125 -0.09151,0.03823 -0.391915,0.09579 -1.09375,0.1875 -2.896584,0.378507 -5.012758,0.914042 -6.21875,4.375 -2.503705,7.185154 5.837699,6.523416 3.5625,1.09375 2.565663,-1.090198 4.017875,-0.628498 5.15625,0.6875 1.69993,1.965192 0.854196,5.358763 -0.09375,7.78125 -1.097895,2.805644 -3.826091,4.707214 -6.0625,6.71875 -1.530872,1.376941 -5.374589,1.104668 -4.96875,3.625 0.399764,2.482582 -5.15605,5.283995 -2.84375,5.5 2.3123,0.216005 4.825066,-2.438968 10.34375,-3.46875 2.961585,-0.55263 15.90978,-2.191964 18.977679,-2.991071 6.700915,-1.745412 9.593399,-5.446908 10.8125,-7.116072 1.2191,-1.669164 2.40856,-10.170425 -0.705358,-13.495536 3.174353,1.702239 2.499371,9.55152 1.831429,12.28479 12.450275,0.499127 27.938065,-21.484772 24.585109,-33.47075 2.144439,-3.016509 5.363377,-2.678158 15.123641,-10.742611 -4.179729,-1.257738 -1.853547,-1.012651 -3.301555,-0.771097 1.627961,-1.153598 2.157144,-3.340528 2.753807,-6.337882 -4.196937,1.361279 -5.192007,4.829294 -9.108502,5.921479 -3.916494,1.092187 -3.640747,2.623844 -15.09375,1.5625 7.737315,-0.0076 9.890917,0.483961 15.3125,-2.4375 3.713941,-2.121075 5.461651,-7.853955 6.875,-17.78125 -2.807165,3.046083 -4.654784,3.918711 -6.25,3.75 3.037294,-0.300583 5.789847,-3.514405 8.5,-7.09375 1.435153,-4.7087654 -3.143346,-7.2874416 -6.4375,-7.59375 -0.202617,-0.01884 -0.379209,-0.014368 -0.5625,0 z m -67.8125,6.25 c 0.435256,3.7829 0.04434,5.778239 3.78125,9.96875 5.716303,4.707909 11.9375,4.90625 11.9375,4.90625 0,0 4.965714,-1.038396 7.5,-1.09375 1.688627,-0.03688 2.259368,0.0691 3.276786,0.5 1.605712,0.680055 2.943013,2.461398 4.165178,3.165179 C 49.480112,27.387193 52.5,24.28125 52.5,24.28125 c 0,0 -2.530354,0.262248 -3.78125,0.0625 -1.171372,-0.187052 -2.266135,-0.726612 -3.375,-1.15625 -9.105086,-3.527834 -13.688871,-0.614909 -26.875,-11.65625 z M 72.3125,16.125 c 0.504549,-0.02198 1.115475,0.125159 1.8125,0.53125 0.938313,0.546666 0.370485,2.569831 -0.34375,2.15625 -1.438797,-0.833144 -2.325808,0.246124 -3.5,-0.375 -0.04726,0.08728 -0.260575,0.2001 -0.84375,0.28125 -0.943417,0.131278 -0.568146,-0.24836 0.46875,-0.875 0.210131,-0.126991 0.892602,-1.652814 2.40625,-1.71875 z m -50.71875,5.4375 2.28125,5.21875 c 0,0 2.552664,0.450693 8.84375,-0.09375 C 30.085274,25.860732 27.86916,25.448581 25.6875,24.28125 24.346367,23.842489 21.59375,21.5625 21.59375,21.5625 z m 2.9375,48.96875 c -0.936717,-0.09497 -1.59603,1.170945 -2.1875,1.90625 -0.51294,0.637678 -0.213439,1.945445 -1.625,2.59375 -1.797115,0.7451 -2.20305,-0.36082 -2.90625,-0.1875 -2.63038,1.548328 -4.858819,5.834201 -6.991071,5.236607 -1.7478034,0.306485 1.814016,0.960019 -1.8437504,4.111607 1.0359754,0.899953 3.8062444,-1.88399 6.3214284,-2.316964 3.056825,-0.52621 5.904762,2.215168 8.513393,0.53125 2.523551,-3.021736 3.662873,-6.131137 3.3125,-8.625 -0.223275,-1.589263 -1.002992,-3.088715 -2.59375,-3.25 z" id="path3009-4" inkscape:connector-curvature="0" sodipodi:nodetypes="scccccccssccscccccccccccsscssssssszccccccscccccsscccsaccsacssscssscccccssccccscss"/>
    <path style="opacity:0.97000001999999996;fill:#000000;fill-opacity:1;stroke:none;display:inline" d="m 17.33372,73.058838 c -1.507923,-0.694134 -1.037141,-3.006412 -2.812858,-3.31027 -0.532914,0.673677 -0.221447,0.831723 0.37346,1.081902 1.293872,0.622226 0.536351,2.000377 -0.665694,2.038078 -1.202046,0.0377 -1.987524,-1.026587 -2.082232,-2.214117 -0.02372,-1.468161 1.06856,-2.953059 2.484067,-3.323154 1.510192,-0.394849 2.655302,0.899986 3.178148,1.961383 -0.733716,1.639357 -0.748286,2.528525 -0.474891,3.766178 z" id="path3790-9" inkscape:connector-curvature="0" sodipodi:nodetypes="ccczcccc"/>
    <path style="opacity:0.97000001999999996;fill:#000000;fill-opacity:1;stroke:none;display:inline" d="m 10.867823,68.798104 c 0.565051,-0.09205 1.315095,0.440042 1.315095,0.440042 0,0 -0.543422,0.809801 -0.07302,2.200242 -1.09506,-0.351005 -0.613052,-1.377429 -1.278561,-1.650181 -0.412632,-0.169111 -0.804932,0.02553 -1.0959166,0.806756 -0.5870145,-0.691585 0.2390251,-1.65132 1.1324386,-1.796859 z" id="path3792-4" inkscape:connector-curvature="0" sodipodi:nodetypes="cccscc"/>
  </g>
</svg>