<svg xmlns="http://www.w3.org/2000/svg" xmlns:xlink="http://www.w3.org/1999/xlink" version="1.1" id="Layer_1" x="0px" y="0px" width="100px" height="100px" viewBox="0 0 100 100" enable-background="new 0 0 100 100" xml:space="preserve">
<path fill-rule="evenodd" clip-rule="evenodd" d="M13.808,57.779c-3.418-4.166-5.923-8.713-6.737-14.1  c-1.264-8.374,3.801-15.391,10.926-18.168c4.775-1.86,9.729-1.698,14.702-0.938c3.631,0.556,7.06,2.028,10.741,2.335  c1.331,0.111,2.668,0.142,3.999,0.269c-2.879,0.329-5.734,0.178-8.558-0.509c-4.302-1.047-8.645-1.725-13.091-1.423  c-5.734,0.39-10.74,2.281-14.138,7.203c-2.822,4.088-3.226,8.658-2.331,13.416c0.717,3.811,2.225,7.336,3.955,10.781  C13.463,57.019,13.631,57.401,13.808,57.779z"/>
<path fill-rule="evenodd" clip-rule="evenodd" d="M44.886,28.438c5.652-0.407,10.99-2.844,16.692-2.754  c12.683,0.198,23.037,4.813,29.652,16.193c0.216,0.373,0.389,0.77,0.57,1.162c0.029,0.065-0.009,0.162-0.028,0.407  c-0.822-1.207-1.524-2.344-2.33-3.402c-5.286-6.922-12.337-10.771-20.908-11.97c-5.152-0.722-10.266-0.272-15.381,0.405  C50.407,28.842,47.649,28.999,44.886,28.438z"/>
<path fill-rule="evenodd" clip-rule="evenodd" d="M68.604,56.908c-0.348,1.979-1.167,3.724-2.762,4.945  c-0.943,0.725-1.363,1.613-1.574,2.705c-0.471,2.419-0.147,4.83,0.034,7.243c0.048,0.621,0.431,0.988,0.955,1.28  c0.295,0.165,0.55,0.454,0.538,0.838c-0.017,0.529-0.498,0.416-0.788,0.472c-1.428,0.279-2.847,0.715-4.328,0.24  c-0.942-0.301-1.378-0.871-1.131-1.847c0.438-1.718-0.1-3.337-0.44-4.985c-0.088-0.434-0.372-0.661-0.662-0.915  c-2.48-2.174-3.326-4.927-2.871-8.148c0.081,3.271,1.353,5.863,4.26,7.515c0.527,0.298,0.287,0.768,0.284,1.158  c-0.016,1.683,0.229,3.28,1.408,4.584c0.305,0.337,0.679,0.819,1.165,0.606c0.541-0.237,0.437-0.779,0.385-1.344  c-0.258-2.855-0.088-5.699,0.455-8.518c0.06-0.311,0.18-0.592,0.459-0.751C66.079,60.8,67.55,59.052,68.604,56.908z"/>
<path fill-rule="evenodd" clip-rule="evenodd" d="M15.76,60.392c0.731,1.856,1.539,3.651,2.914,5.125  c0.267,0.288,0.148,0.655,0.18,0.992c0.176,1.935,0.838,3.698,1.969,5.267c0.393,0.545,0.887,1.2,1.688,0.945  c0.768-0.246,0.913-1.037,0.925-1.719c0.032-1.787-0.393-3.512-0.954-5.193c-0.247-0.742-0.352-1.321,0.385-1.909  c0.642-0.514,0.726-1.422,1.059-2.3c0.208,1.206-0.411,2.148-0.447,3.171c-0.069,1.953,0.123,3.891,0.556,5.789  c0.202,0.883,0.643,1.691,1.5,2.177c0.299,0.169,0.601,0.361,0.833,0.607c0.317,0.334,0.761,0.729,0.587,1.199  c-0.136,0.365-0.682,0.239-1.059,0.307c-1.667,0.297-3.325,0.365-5,0.018c-1.054-0.218-1.621-0.605-1.634-1.86  c-0.027-2.84-0.689-5.52-2.345-7.932C15.979,63.709,15.866,62.031,15.76,60.392z"/>
<path fill-rule="evenodd" clip-rule="evenodd" d="M79.2,72.29c1.17,0.41,2.249,1.049,3.539,1.079  c0.738,0.018,1.469,0.018,2.19-0.151c0.879-0.207,1.398-0.452,0.657-1.505c-0.78-1.111-0.957-2.446-0.653-4.095  c0.385,0.779,0.604,1.369,0.939,1.883c2.021,3.081,5.021,4.354,8.577,4.503c0.819,0.034,1.474-0.055,1.36-1.34  c-0.117-1.341,0.59-2.585,1.577-3.574c0.271-0.272,0.602-0.646,0.996-0.394c0.379,0.246,0.388,0.732,0.35,1.184  c-0.229,2.733-1.619,4.374-4.327,4.891c-2.023,0.385-4.06,0.307-5.959-0.593c-0.721-0.344-1.326-0.356-2.083-0.122  C83.647,74.895,81.209,74.384,79.2,72.29z"/>
<path fill-rule="evenodd" clip-rule="evenodd" d="M81.08,70.246c-2.129,0.906-4.314,1.356-6.636,1.246  c-4.157-0.198-6.68-3.651-6.739-7.199c-0.044-2.665,0.93-5.047,2.441-7.229c-0.35,1.976-0.951,3.896-0.952,5.925  c-0.001,4.625,2.623,7.334,7.258,7.452C77.999,70.482,79.536,70.33,81.08,70.246z"/>
<path fill-rule="evenodd" clip-rule="evenodd" d="M90.781,55.845c0.189-1.158,0.421-2.199,0.275-3.267  c-0.221-1.609-0.841-1.973-2.344-1.375c-0.688,0.271-1.336,0.609-1.92,1.06c-1.39,1.066-1.731,2.404-0.821,4.146  c-1.897-1.376-2.227-3.391-0.951-5.003c1.284-1.623,3.115-2.404,4.961-3.164c0.385-0.158,0.548,0.038,0.763,0.26  C92.497,50.323,92.559,53.718,90.781,55.845z"/>
<path fill-rule="evenodd" clip-rule="evenodd" d="M6.932,36.312c-1.547,3.637-0.625,6.955-0.192,10.273  c0.3,2.303-0.431,3.645-2.196,3.842c-0.894,0.099-1.809,0.017-3.044,0.017c1.005-0.598,1.94-0.775,2.404-1.573  c0.072-0.123,0.882-0.588-0.15-0.598c-0.378-0.003,0.015-0.325,0.097-0.417c0.619-0.7,0.706-1.529,0.726-2.417  c0.056-2.512,0.285-5.003,1.244-7.364C6.028,37.558,6.206,37.018,6.932,36.312z"/>
<path fill-rule="evenodd" clip-rule="evenodd" d="M96.947,67.364c-0.679-0.505-0.889-1.89-2.356-1.069  c0.984-0.625,0.846-1.228,0.477-2.024c-0.761-1.641-0.757-3.327-0.017-5.018c0.588-1.343,1.165-2.689,1.52-4.126  c0.778-3.17-0.539-5.555-2.871-7.669c2.809,0.904,4.745,4.268,4.268,7.243c-0.228,1.419-0.591,2.821-1.296,4.057  c-1.383,2.419-1.167,4.786-0.091,7.204c0.191,0.43,0.322,0.885,0.481,1.329C97.023,67.316,96.985,67.34,96.947,67.364z"/>
<path fill-rule="evenodd" clip-rule="evenodd" d="M27.279,57.727c-0.897,0.979-0.246,1.557,0.936,2.284  c1.415,0.875,3.465,0.994,5.294,1.388c4.165,0.896,8.656,0.855,13.286,0.333c1.277-0.144,2.558-0.267,3.847-0.456  c-2.808-0.047-5.663,0.331-8.483,0.189c-3.042-0.153-5.88-0.498-8.482-1.156C31.16,59.674,29.171,58.744,27.279,57.727z"/>
<path fill-rule="evenodd" clip-rule="evenodd" d="M90.227,63.136c-0.291-1.432-1.144-2.374-2.542-2.949  c1.197-0.288,2.024-0.133,2.522,0.483C90.827,61.439,90.625,62.264,90.227,63.136z"/>
<path fill-rule="evenodd" clip-rule="evenodd" d="M97.062,67.291c0.275,0.229,0.4,0.537,0.484,0.981  c-0.997-0.1-1.946-0.038-2.828,0.799c0.373-1.33,1.374-1.412,2.229-1.707C96.985,67.34,97.023,67.316,97.062,67.291z"/>
</svg>