<svg xmlns="http://www.w3.org/2000/svg" xmlns:xlink="http://www.w3.org/1999/xlink" version="1.1" id="Layer_1" x="0px" y="0px" width="100px" height="100px" viewBox="0 0 100 100" enable-background="new 0 0 100 100" xml:space="preserve">
<path fill-rule="evenodd" clip-rule="evenodd" d="M97.609,67.892c-0.62-0.209-1.183-0.337-1.688-0.584  c-0.674-0.33-1.095-0.912-1.006-1.687c0.073-0.634,0.404-1.167,1.052-1.416c0.75-0.29,1.369-0.034,1.912,0.483  c0.842,0.801,1.204,2.343,0.782,3.405c-0.496,1.248-1.465,1.81-2.777,1.886c-0.979,0.057-1.923-0.125-2.715-0.656  c-0.823-0.553-1.183-0.272-1.588,0.48c-0.443,0.821-1.019,1.571-1.652,2.528c-0.047-0.771,0.337-1.129,0.557-1.539  c2.311-4.31,3.699-8.853,3.655-13.791c-0.062-7.031-2.826-12.944-7.513-18.014c-6.142-6.646-13.932-10.333-22.64-12.254  c-7.03-1.551-14.108-1.533-21.229-0.604c-5.053,0.66-10.135,1.09-15.215,1.53c6.909-1.333,13.774-2.972,20.765-3.727  c12.213-1.316,23.714,0.886,33.92,8.06c6.427,4.517,11.026,10.436,12.848,18.246c1.299,5.57,0.646,10.958-1.698,16.132  c-0.438,0.97-0.179,1.402,0.606,1.848C95.439,69.042,96.544,68.982,97.609,67.892z M96.493,64.754  c-0.589-0.017-1.066,0.453-1.092,1.073c-0.03,0.777,0.854,1.542,1.828,1.642c0.586,0.061,0.709-0.267,0.72-0.717  C97.974,65.818,97.203,64.775,96.493,64.754z"/>
<path fill-rule="evenodd" clip-rule="evenodd" d="M13.616,34.291c-0.813,1.923-1.641,3.822-2.029,5.892  c-0.645,3.445-1.879,4.64-5.389,5.283c-0.617,0.113-0.848,0.23-0.735,0.91c0.199,1.21-0.332,2.234-1.262,3.389  c1.302,0,2.386,0.058,3.46-0.016c1.097-0.075,2.184-0.278,3.486-0.455c-1.965,0.849-3.914,0.783-5.762,1.313  c3.732,1.592,7.789,0.816,11.616,1.652c3.83,0.839,7.709,1.258,11.649,1.012c-2.372,0.732-4.799,0.992-7.257,0.766  c-4.303-0.397-8.607-0.724-12.927-0.892c-4.06-0.161-6.327-2.074-6.926-5.692c-0.333-2.011,0.57-3.192,2.581-3.333  c0.901-0.063,1.801-0.069,2.7-0.243c2.033-0.394,3.29-1.499,3.732-3.575C11.036,38.042,12.124,36.06,13.616,34.291z M4.479,47.079  c-0.14-0.398,0.069-1.233-0.616-1.208c-0.855,0.031-0.897,0.951-0.991,1.618c-0.073,0.52-0.034,1.299,0.596,1.288  C4.372,48.759,4.313,47.832,4.479,47.079z"/>
<path fill-rule="evenodd" clip-rule="evenodd" d="M37.544,75.351c-1.248,2.081-3.913,1.976-5.75,1.245  c-0.458-0.181-0.376-0.447-0.157-0.748c2.586-3.539,2.354-7.763,2.841-11.804c0.177-1.466,0.221-2.956,0.203-4.434  c-0.023-2.016-0.185-3.99-1.408-5.764c-0.903-1.312-1.018-2.947-1.181-4.491c-0.185-1.754-0.177-3.529,0.002-5.635  c0.419,2.913,0.702,5.515,1.603,7.985c0.168,0.462,0.274,1.004,0.586,1.345c1.917,2.104,2.005,4.724,2.029,7.309  c0.038,4.121-0.539,8.194-1.489,12.197c-0.219,0.922-0.845,1.772-1.389,2.586c-0.515,0.77-0.195,0.97,0.524,1.069  C35.259,76.388,36.486,76.271,37.544,75.351z"/>
<path fill-rule="evenodd" clip-rule="evenodd" d="M50.933,76.847c-2.141-0.468-3.181-1.591-3.042-3.086  c0.058-0.628,0.271-0.949,0.961-0.995c3.224-0.219,6.137-1.681,9.222-2.37c2.812-0.627,4.042-2.248,5.131-4.673  c1.804-4.023,6.456-6.541,11.36-6.542c-1.283,0.461-2.477,0.852-3.639,1.32c-1.229,0.495-2.336,1.209-3.35,2.064  c-2.016,1.7-3.428,3.814-3.92,6.396c-0.215,1.126-0.843,1.63-1.727,1.933c-4.038,1.381-8.118,2.626-12.4,2.979  c-1.088,0.091-0.863,0.636-0.592,1.229C49.309,75.908,50.119,76.283,50.933,76.847z"/>
<path fill-rule="evenodd" clip-rule="evenodd" d="M23.845,33.335c0.608-3.252-0.651-5.313-2.997-6.903  c-0.759-0.514-1.264-0.49-1.849,0.241c-1.05,1.311-1.698,2.792-2.101,4.4c-0.095,0.38-0.204,0.757-0.365,1.356  c-0.507-1.517-0.481-2.821-0.066-4.085c0.869-2.649,1.573-5.327,1.715-8.16C21.908,22.441,26.542,28.696,23.845,33.335z"/>
<path fill-rule="evenodd" clip-rule="evenodd" d="M55.528,76.01c2.374-1.349,4.977-1.548,7.604-1.119  c1.467,0.238,2.525,0.26,3.482-1.197c1.593-2.422,3.997-2.189,6.51-0.655c2.092,1.279,4.297,2.192,6.751,2.525  c1.488,0.202,2.944,0.028,4.419-0.037c-2.559,1.117-5.188,1.174-7.857,0.492c-1.482-0.378-2.845-1.055-4.201-1.74  c-2.646-1.335-3.752-1.121-5.33,1.384c-0.636,1.011-1.154,1.113-2.229,0.804C61.69,75.604,58.645,75.222,55.528,76.01z"/>
<path fill-rule="evenodd" clip-rule="evenodd" d="M48.529,46.49c-0.107,4.092-1.118,7.47-3.738,10.178  c-2.654,2.74-4.212,5.985-4.583,9.735c-0.165,1.662-0.609,3.32-0.349,5.019c-1.498-4.729-0.762-11.006,3.006-14.782  c2.666-2.676,4.475-5.755,5.376-9.398C48.278,47.089,48.352,46.947,48.529,46.49z"/>
<path fill-rule="evenodd" clip-rule="evenodd" d="M64.511,62.433c-1.722,2.267-1.141,2.112-3.636,1.326  c-4.676-1.473-8.453-4.319-11.664-7.979C53.724,59.349,58.686,61.862,64.511,62.433z"/>
<path fill-rule="evenodd" clip-rule="evenodd" d="M9.759,29.727c1.221,0.885,2.431,1.787,3.669,2.646  c0.464,0.322,0.48,0.589,0.073,0.941c-0.092,0.079-0.162,0.184-0.238,0.28c-1.355,1.674-1.377,1.685-2.381-0.213  c-0.38-0.719-0.657-1.494-0.955-2.254c-0.159-0.407-0.26-0.837-0.388-1.256C9.612,29.823,9.686,29.775,9.759,29.727z"/>
<path fill-rule="evenodd" clip-rule="evenodd" d="M14.981,37.942c0.974,0.167,1.899,0.225,2.809-0.237  C16.854,39.188,15.752,39.296,14.981,37.942z"/>
</svg>