<svg xmlns="http://www.w3.org/2000/svg" xmlns:xlink="http://www.w3.org/1999/xlink" version="1.1" id="Layer_1" x="0px" y="0px" width="100px" height="100px" viewBox="0 0 100 100" enable-background="new 0 0 100 100" xml:space="preserve">
<path fill-rule="evenodd" clip-rule="evenodd" d="M68.197,28.51c-6.282-1.738-12.433-3.307-18.739-3.66  C34.4,24.008,20.889,27.703,10.622,39.473C4.885,46.046,2.585,53.805,4.5,62.507c0.406,1.849,0.042,2.919-1.712,3.78  c-1.387,0.679-1.709,2.146-1.369,3.637c0.304,1.324,1.371,1.919,2.556,2.147c1.346,0.258,2.284-0.304,2.525-2.137  c-1.222,1.033-2.431,2.059-3.475,0.325c-0.582-0.968-0.666-2.082,0.501-2.815c3.12-1.967,2.449,2.034,4.229,2.521  c-0.624-2.339-1.468-4.627-1.822-6.986C4.048,50.417,9.777,41.4,19.733,34.664c9.505-6.434,20.244-8.524,31.555-7.809  C56.936,27.215,62.561,27.947,68.197,28.51z"/>
<path fill-rule="evenodd" clip-rule="evenodd" d="M86.585,34.868c0.834,2.948,1.615,5.913,2.533,8.836  c0.325,1.03,1.124,1.982,2.199,2.2c2.67,0.532,3.937,2.09,3.848,4.919c-0.879,0.081-1.923,0.175-3.507,0.322  c1.109,0.297,1.747,0.464,2.385,0.635c0.025,0.165,0.054,0.333,0.08,0.498c-6.729,0.842-13.461,1.686-20.618,2.582  c1.41,0.851,2.543,0.65,3.578,0.586c5.443-0.347,10.884-0.75,16.319-1.201c2.675-0.223,4.227-1.951,5.058-4.329  c0.965-2.766-0.058-4.521-2.997-4.583c-3.579-0.076-5.559-1.589-6.269-5.086c-0.292-1.429-1.022-2.769-1.553-4.15  C87.288,35.687,86.939,35.278,86.585,34.868z"/>
<path fill-rule="evenodd" clip-rule="evenodd" d="M68.244,46.835c-3.524,8.05-6.111,16.005-3.725,24.673  c0.282,1.031,0.43,2.113,0.822,3.099c1.196,3.003,1.229,2.987-1.749,3.333c0.857,0.913,1.97,0.786,3.021,0.643  c1.355-0.184,1.893-0.495,1.261-2.28c-2.559-7.256-4.009-14.626-0.687-22.139C68.149,51.987,68.066,49.559,68.244,46.835z"/>
<path fill-rule="evenodd" clip-rule="evenodd" d="M36.317,65.997c-2.562-2.84-5.511-4.977-9.549-5.169  c2.126,1.16,4.402,2.064,6.125,3.853c1.757,1.821,2.85,3.965,3.398,6.432c0.223,1.009,1.258,1.043,2.034,1.342  c3.398,1.307,6.904,2.25,10.49,2.849c1.521,0.251,3.521-0.043,0.979,3.027c1.829-1.099,2.431-1.99,2.213-3.136  c-0.252-1.306-1.513-0.839-2.373-1.096c-3.372-1.012-6.725-2.079-10.089-3.115c-2.53-0.778-2.213-3.393-3.317-5.092L36.317,65.997z"/>
<path fill-rule="evenodd" clip-rule="evenodd" d="M15.058,76.799c4.557,2.062,8.094,1.235,11.437-0.537  c2.566-1.361,4.774-1.965,6.489,1.08c0.543,0.963,1.358,0.92,2.221,0.64c2.491-0.813,5.063-0.727,8.044-0.682  c-1.201-0.929-2.229-1.169-3.322-1.156c-2.952,0.028-5.899,0.839-8.304-2.185c-1.206-1.518-3.411-0.397-5.024,0.546  C23.302,76.435,19.809,77.521,15.058,76.799z"/>
<path fill-rule="evenodd" clip-rule="evenodd" d="M83.405,32.766c0.846-3.952-1.547-7.353-1.414-11.854  c-4.04,3.629-7.297,6.833-6.444,12.604c0.305-0.467,0.52-0.646,0.535-0.842c0.196-2.619,1.617-4.939,3.978-5.115  c1.863-0.142,2.333,2.635,3.038,4.371C83.211,32.204,83.303,32.485,83.405,32.766z"/>
<path fill-rule="evenodd" clip-rule="evenodd" d="M60.214,71.679c1.186-5.722,0.202-10.824-4.253-14.962  c-1.984-1.846-2.979-4.373-4.175-7.388c-0.349,3.16,0.559,5.511,2.177,7.24C57.967,60.85,60.085,65.774,60.214,71.679z"/>
<path fill-rule="evenodd" clip-rule="evenodd" d="M36.228,65.892c4.824-0.899,8.925-3.125,12.549-7.09  c-3.886,2.275-7.932,4.083-12.366,4.972c-1.84,0.369,0.409,1.479-0.097,2.218C36.317,65.997,36.228,65.892,36.228,65.892z"/>
<path fill-rule="evenodd" clip-rule="evenodd" d="M81.688,40.561c-1.393-0.191-2.672-0.506-3.707-1.521  C78.617,41.45,80.063,42.068,81.688,40.561z"/>
<path fill-rule="evenodd" clip-rule="evenodd" d="M86.585,34.868c0.354,0.41,0.703,0.818,1.057,1.228  c2.059-0.968,2.397-2.837,2.835-5.603C88.995,32.501,86.451,32.352,86.585,34.868z"/>
</svg>